<?xml version="1.0" standalone="no"?>
<!DOCTYPE svg PUBLIC "-//W3C//DTD SVG 1.1//EN" "http://www.w3.org/Graphics/SVG/1.1/DTD/svg11.dtd" >
<svg xmlns="http://www.w3.org/2000/svg" xmlns:xlink="http://www.w3.org/1999/xlink" version="1.1">
<metadata></metadata>
<defs>
<font id="hamburgerheavenregular" horiz-adv-x="978" >
<font-face units-per-em="2048" ascent="1638" descent="-410" />
<missing-glyph horiz-adv-x="409" />
<glyph horiz-adv-x="0" />
<glyph unicode="&#xd;" horiz-adv-x="409" />
<glyph unicode=" "  horiz-adv-x="409" />
<glyph unicode="&#x09;" horiz-adv-x="409" />
<glyph unicode="&#xa0;" horiz-adv-x="409" />
<glyph unicode="!" horiz-adv-x="456" d="M508 1509l-139 -972q-2 -16 -2 -29q0 -59 63 -59l-12 -146q-154 0 -207 72q-41 57 -35 198l33 791h-80l12 145h367zM414 133q0 -55 -39 -94t-94 -39t-94.5 39t-39.5 94t39 94t95 39q55 0 94 -39t39 -94z" />
<glyph unicode="&#x22;" horiz-adv-x="600" d="M688 1399q-4 -39 -46 -132t-48 -155h-115q6 61 -20.5 154.5t-24.5 132.5q4 51 45 89t94 38q51 0 85 -37t30 -90zM401 1399q-4 -39 -46 -132t-48 -155h-114q6 61 -21 154.5t-25 132.5q4 51 45 89t95 38q51 0 84.5 -37t29.5 -90z" />
<glyph unicode="#" horiz-adv-x="966" d="M997 780h-290l-58 -309h-139l57 309h-114l-58 -309h-139l57 309h-209v138h234l22 120h-256v138h283l62 333h139l-62 -333h115l61 333h140l-62 -333h217v-138h-243l-23 -120h266v-138zM614 1038h-114l-23 -120h115z" />
<glyph unicode="$" horiz-adv-x="798" d="M809 1511l-12 -137h-150l-90 -459l148 -190q92 -119 92 -279q0 -209 -160 -335q-106 -84 -258 -103l-27 -135h-137l25 129h-160l12 135l174 2l101 508l-195 268q-57 80 -57 187q0 186 151 309q104 84 271 98l14 76h139l-14 -74h133zM508 1364q-117 -33 -117 -152 q0 -76 58 -153zM475 496l-65 -330q113 53 112 176q0 76 -47 154z" />
<glyph unicode="%" horiz-adv-x="1898" d="M1901 748l-41 -457q-10 -121 -124 -207t-261 -86h-43q-139 0 -238 74q-109 84 -96 219l39 457q12 135 135 217q111 74 250 73h43q141 0 239 -73q109 -82 97 -217zM1438 1509l-729 -1509h-148l729 1509h148zM899 1217l-39 -457q-10 -119 -123.5 -205t-261.5 -86h-43 q-141 0 -237 74q-109 82 -97 217l39 457q12 135 135 219q111 74 250 73h43q141 0 238 -73q108 -84 96 -219zM1626 748q6 72 -22.5 112.5t-71.5 40.5t-79 -41t-42 -112l-41 -457q-6 -72 22.5 -113t71.5 -43t79 39t42 117zM627 1217q6 72 -23 112.5t-72 40.5t-78.5 -41 t-41.5 -112l-41 -457q-6 -72 22.5 -113t71.5 -43t79 39t42 117z" />
<glyph unicode="&#x26;" horiz-adv-x="1087" d="M1090 1040l-13 -137h-209l-47 -547l117 -219h102l-12 -137h-303l-43 80q-111 -80 -295 -80q-178 0 -270 104v-2q-63 70 -64 166v23l39 459q10 119 121 208q-51 94 -59 113q-25 59 -25 123q0 141 115 231q104 84 250 84h395l-12 -137h-334q-150 0 -150 -151q0 -59 27 -111 l166 -313l20 243h484zM545 336l-185 346l-32 -391v-23q0 -129 92 -129q53 0 88 51q27 43 33 101z" />
<glyph unicode="'" horiz-adv-x="331" d="M401 1399q-4 -39 -46 -132t-48 -155h-114q6 61 -21 154.5t-25 132.5q4 51 45 89t95 38q51 0 84.5 -37t29.5 -90z" />
<glyph unicode="(" horiz-adv-x="557" d="M614 1509l-12 -137h-94q-37 0 -65.5 -33.5t-32.5 -87.5l-125 -1446q-4 -53 17.5 -86.5t55.5 -33.5h97l-13 -138h-129q-137 0 -221 74q-92 82 -80 219l121 1377q12 137 117 219q98 74 233 73h131z" />
<glyph unicode=")" horiz-adv-x="538" d="M-25 -453l13 138h94q37 0 65.5 33.5t32.5 86.5l125 1446q4 53 -17.5 87t-56.5 34h-96l12 137h129q137 0 222 -73q92 -82 80 -219l-121 -1377q-12 -137 -117 -219q-98 -74 -234 -74h-131z" />
<glyph unicode="*" horiz-adv-x="681" d="M729 1292l-174 -100l172 -100l-68 -119l-172 98v-199h-135v203l-174 -100l-67 119l170 98l-172 98l69 119l174 -100v200h135v-198l172 100z" />
<glyph unicode="+" horiz-adv-x="1212" d="M725 485v-485h-174v485h-485v174h485v486h174v-486h485v-174h-485z" />
<glyph unicode="," horiz-adv-x="317" d="M279 86q0 -119 -80 -186q-47 -41 -123 -43v82q63 -4 84 53q-20 -4 -39 0q-51 8 -81 52t-22 95q10 51 53.5 82t94.5 21q113 -21 113 -156z" />
<glyph unicode="-" horiz-adv-x="442" d="M459 860l-19 -205h-362l18 205h363z" />
<glyph unicode="." horiz-adv-x="321" d="M279 117q0 -51 -37 -88t-90 -37q-51 0 -88 37t-37 88q0 53 35.5 90t89.5 37q53 0 90 -37t37 -90z" />
<glyph unicode="/" horiz-adv-x="856" d="M940 1509l-930 -1925h-188l930 1925h188z" />
<glyph unicode="0" horiz-adv-x="837" d="M850 750l-41 -459q-10 -121 -123 -206t-262 -85h-41q-141 0 -240 74q-109 82 -96 217l41 459q12 135 135 217q109 74 250 73h43q139 0 238 -73q108 -84 96 -217zM575 750q6 72 -24 114q-27 37 -70 37q-45 0 -78 -37q-37 -43 -43 -114l-38 -459q-6 -78 21.5 -121t72.5 -43 q43 0 78.5 43t42.5 121z" />
<glyph unicode="1" horiz-adv-x="581" d="M539 137l-13 -137h-499l12 137h113l67 766h-117l13 137h389l-78 -903h113z" />
<glyph unicode="2" horiz-adv-x="780" d="M793 784q0 -168 -152 -327l-303 -320h360l-12 -137h-670l13 135l430 440q104 106 86 224q-18 117 -146 104q-57 -6 -103 -48t-52 -105l-4 -45h-138l4 45q12 141 121 219q96 72 240 71q139 0 225 -59q101 -68 101 -197z" />
<glyph unicode="3" horiz-adv-x="743" d="M774 1040l-289 -501q98 -29 156 -99q63 -78 55 -178l-28 -332q-10 -119 -124 -204.5t-261 -85.5h-43q-121 0 -199 86t-68 204h138q-6 -68 34 -108l2 -2q45 -45 105 -45q127 0 141 155l35 385q10 102 -78 103h-217l283 485h-328l12 137h674z" />
<glyph unicode="4" horiz-adv-x="1038" d="M1006 137l-13 -137h-157l-33 -360h-273l31 360h-555l625 1040h295l-78 -903h158zM608 530l-237 -393h202z" />
<glyph unicode="5" horiz-adv-x="733" d="M702 1040l-10 -137h-313l-29 -348q143 0 244 -72q113 -82 100 -221l-30 -332q-10 -121 -123 -205.5t-262 -84.5h-43q-119 0 -198 85t-69 205h137q-4 -63 37 -109t105 -46q131 0 143 155l31 367q10 121 -76 121h-285l56 622h585z" />
<glyph unicode="6" horiz-adv-x="851" d="M852 750l-41 -459q-10 -121 -123 -206t-262 -85h-41q-141 0 -240 74q-109 82 -96 217l64 725q16 182 176 299q147 109 336 108h168l-13 -137h-168q-88 0 -149.5 -54t-67.5 -130l-6 -70q35 8 86 8h43q139 0 238 -73q108 -84 96 -217zM578 750q6 72 -22 112.5t-71 40.5 t-77 -37q-37 -43 -43 -114l-41 -461q-6 -70 22.5 -109t71.5 -39t78.5 39t42.5 109z" />
<glyph unicode="7" horiz-adv-x="827" d="M866 1040l-504 -1400h-276l455 1263h-451l12 137h764z" />
<glyph unicode="8" horiz-adv-x="866" d="M852 664l-33 -373q-10 -121 -122.5 -206t-262.5 -85h-43q-139 0 -237 74q-109 82 -97 217l33 373q12 141 141 221q-14 10 -38 35q-66 70 -66 174q0 135 100 225q115 104 310 104q197 0 292 -104q63 -70 64 -174q0 -135 -98 -225q-6 -6 -45 -35q114 -82 102 -221z M526 1288q-53 0 -92 -71q-33 -61 -33 -119q0 -47 25 -92q27 -53 70 -54q27 0 59 29q66 59 66 160q0 45 -25 92q-27 55 -70 55zM578 664q6 72 -25 114q-27 37 -70 37t-75 -37q-37 -43 -43 -114l-33 -373q-6 -72 22.5 -112t71.5 -40q45 0 80 40t41 112z" />
<glyph unicode="9" horiz-adv-x="841" d="M850 750l-62 -705q-16 -182 -176 -299q-145 -106 -336 -106h-167l12 135h168q88 0 150.5 54t68.5 130l4 49q-39 -8 -88 -8h-43q-139 0 -238 74q-109 84 -96 217l41 459q10 121 123 205.5t262 84.5h43q139 0 238 -73q108 -82 96 -217zM575 750q6 70 -22.5 108.5 t-71.5 38.5t-78.5 -39t-42.5 -108l-38 -459q-6 -72 21.5 -113t70.5 -41t79.5 40t43.5 112z" />
<glyph unicode=":" horiz-adv-x="321" d="M336 614q0 -51 -37 -88t-90 -37q-51 0 -88 37t-37 88q0 53 36 90t89 37t90 -37t37 -90zM283 117q0 -51 -37 -88t-90 -37q-51 0 -88 37t-37 88q0 53 35.5 90t89.5 37q53 0 90 -37t37 -90z" />
<glyph unicode=";" horiz-adv-x="321" d="M336 614q0 -51 -37 -88t-90 -37q-51 0 -88 37t-37 88q0 53 36 90t89 37t90 -37t37 -90zM289 86q0 -119 -80 -186q-47 -41 -123 -43v82q63 -4 84 53q-20 -4 -39 0q-51 8 -81 52t-21 95q10 51 53 82t94 21q113 -21 113 -156z" />
<glyph unicode="&#x3c;" horiz-adv-x="1177" d="M59 682v143l1096 435v-175l-840 -331l840 -330v-174z" />
<glyph unicode="=" horiz-adv-x="1251" d="M1227 707h-1145v174h1145v-174zM1227 252h-1145v174h1145v-174z" />
<glyph unicode="&#x3e;" horiz-adv-x="1177" d="M1206 682v143l-1095 435v-175l839 -331l-839 -330v-174z" />
<glyph unicode="?" horiz-adv-x="796" d="M844 1159q0 -201 -217 -356q-59 -33 -195 -117q-82 -53 -98 -70q-43 -45 -49 -114l-17 -174h-147l24 262q10 106 56 176q37 57 122 117.5t119 103.5q59 74 68 180q6 82 -43 139.5t-131 57.5h-199l13 145h235q180 0 309 -84q150 -98 150 -266zM328 133q0 -55 -39 -94 t-94 -39t-94.5 39t-39.5 94t39 94t95 39q55 0 94 -39t39 -94z" />
<glyph unicode="@" horiz-adv-x="1685" d="M1686 754q-37 -436 -414 -437q-127 0 -217 56q-90 -55 -203 -56h-33q-125 0 -209 62q-98 72 -88 190l31 373q10 117 121 188q98 61 221 62h354l-51 -576q-12 -147 70 -147q16 0 35 4q57 14 106 78q61 82 72 203q2 33 2 65q0 240 -133 389q-143 164 -400 164 q-264 0 -440 -213q-164 -199 -164 -467q0 -233 142.5 -394t353.5 -161h340l-13 -137h-340q-326 0 -541.5 193.5t-215.5 494.5q0 354 272 592q260 229 619 229q332 0 529.5 -176t197.5 -493q0 -41 -4 -86zM963 1057q-76 0 -97 -13q-33 -18 -39 -96l-32 -379q-10 -121 53 -123 q61 -2 72 123z" />
<glyph unicode="A" horiz-adv-x="915" d="M920 1192l-86 -979q-6 -74 59 -76l-12 -137h-109q-102 0 -160 51q-63 57 -53 162l31 348h-248l-49 -561h-273l105 1192q14 164 158 248q115 70 266 69q152 0 256 -69q129 -86 115 -248zM649 1231q6 59 -24.5 100t-87.5 41q-55 0 -92 -41t-44 -100l-47 -533h248z" />
<glyph unicode="B" horiz-adv-x="905" d="M932 1192l-12 -141q-12 -135 -125 -236q129 -92 114 -260l-20 -238q-10 -131 -111.5 -224t-232.5 -93h-455l119 1372h-78l10 137h502q131 0 216 -93t73 -224zM662 1231q4 57 -33 99t-94 42h-54l-43 -502h70q53 8 92 48t43 92zM641 594q4 55 -31 97t-88 42h-96l-53 -598 h88q57 0 101 42t50 99z" />
<glyph unicode="C" horiz-adv-x="772" d="M836 1509l-13 -137h-317q-37 0 -65.5 -33.5t-32.5 -87.5l-84 -960q-8 -82 36 -125q37 -35 101 -31q61 4 109 47t55 109h137q-10 -119 -103.5 -205t-214.5 -86q-94 0 -131 6q-117 18 -190 90q-82 80 -72 195l80 926q12 137 117 219q98 74 233 73h355z" />
<glyph unicode="D" horiz-adv-x="927" d="M971 1192l-76 -875q-12 -131 -112.5 -224t-231.5 -93h-457l121 1372h-80l12 137h535q131 0 216 -93t73 -224zM702 1231q6 57 -31.5 99t-97.5 42h-86l-108 -1237h86q57 0 102 42t51 99z" />
<glyph unicode="E" horiz-adv-x="749" d="M836 1509l-13 -137h-276q-59 0 -104.5 -42t-49.5 -99l-35 -408h342l-10 -137h-344l-37 -410q-6 -57 32 -99t97 -42h277l-13 -135h-372q-131 0 -216 93t-73 224l76 875q12 131 113.5 224t232.5 93h373z" />
<glyph unicode="F" horiz-adv-x="780" d="M868 1509l-10 -137h-432l-49 -549h299l-12 -137h-299l-60 -686h-274l133 1509h704z" />
<glyph unicode="G" horiz-adv-x="927" d="M1004 1509l-13 -137h-487q-37 0 -64.5 -33.5t-31.5 -87.5l-84 -960q-8 -82 34 -125q39 -35 101 -31q61 4 109 47t55 109l47 532h274l-86 -979q-10 -121 -123.5 -207t-261.5 -86h-276l12 138h223q59 0 102.5 45t49.5 110l18 201q-74 -45 -160 -45q-94 0 -131 6 q-117 18 -190 90q-82 80 -72 195l80 926q12 137 119 219q96 74 233 73h523z" />
<glyph unicode="H" horiz-adv-x="1001" d="M1020 1509l-113 -1296q-6 -76 68 -76l-12 -137h-117q-100 0 -159.5 54.5t-51.5 158.5l41 473h-260l-60 -686h-274l121 1372h-78l12 137h350l-59 -686h258l59 686h275z" />
<glyph unicode="I" horiz-adv-x="335" d="M420 1509l-131 -1509h-275l131 1509h275z" />
<glyph unicode="J" horiz-adv-x="403" d="M451 1509l-146 -1665q-10 -125 -108.5 -209t-243.5 -84h-309l12 138h223q137 0 152 155l145 1665h275z" />
<glyph unicode="K" horiz-adv-x="966" d="M1018 1509l-420 -643h96q92 0 150 -43q66 -47 65 -131q0 -18 -4 -39l-2 -12h2l-37 -428q-6 -74 62 -76l-12 -137h-113q-100 0 -159.5 54.5t-51.5 158.5l37 440q6 76 -70 76h-145l-64 -729h-274l121 1372h-80l12 137h352l-49 -575l377 575h207z" />
<glyph unicode="L" horiz-adv-x="796" d="M762 137l-10 -137h-430q-100 0 -160 54.5t-51 158.5l100 1159h-76l12 137h349l-111 -1296q-6 -76 70 -76h307z" />
<glyph unicode="M" horiz-adv-x="1509" d="M1497 1186l-82 -973q-6 -74 62 -76l-13 -137h-112q-100 0 -159.5 53t-51.5 160l84 989q14 160 -105 160h-119l-120 -1362h-275l107 1202q14 160 -109 160h-119l-118 -1362h-275l121 1372h-80l12 137h988q162 0 264 -79q112 -88 100 -244z" />
<glyph unicode="N" horiz-adv-x="1005" d="M991 1186l-84 -973q-6 -74 60 -76l-13 -137h-110q-100 0 -158 51q-66 57 -55 162l86 973q8 84 -23.5 131t-81.5 47l-118 -2l-119 -1362h-275l119 1372h-82l13 137h475q164 0 266 -79q114 -88 100 -244z" />
<glyph unicode="O" horiz-adv-x="917" d="M969 1192l-78 -875q-12 -135 -117 -223q-111 -94 -278 -94h-90q-166 0 -261 94q-92 88 -79 223l75 875q12 135 122 226t276 91h88q166 0 260 -91t82 -226zM698 1231q4 57 -32.5 99t-94.5 42q-57 0 -102 -42t-51 -99l-84 -955q-6 -57 31.5 -99t97.5 -42q59 0 104 41 t49 100z" />
<glyph unicode="P" horiz-adv-x="921" d="M963 1192l-21 -246q-10 -131 -111.5 -223t-232.5 -92h-184l-54 -631h-274l121 1372h-80l12 137h535q131 0 215 -93t74 -224zM694 1231q6 57 -31.5 99t-97.5 42h-86l-53 -606h86q57 0 102 42t52 99z" />
<glyph unicode="Q" horiz-adv-x="921" d="M961 1192l-78 -875q-10 -117 -93 -202.5t-217 -108.5l-12 -121q-6 -57 32 -99t97 -42h35l-12 -135h-131q-131 0 -216 92t-73 223l8 86q-123 27 -188.5 111t-55.5 196l76 875q12 135 122 226t275 91h88q166 0 260.5 -91t82.5 -226zM690 1231q4 57 -32.5 99t-94.5 42 q-57 0 -102 -42t-51 -99l-84 -955q-6 -57 31.5 -99t97.5 -42q59 0 104 41t49 100z" />
<glyph unicode="R" horiz-adv-x="989" d="M854 823q66 -49 66 -147l-2 -35l-37 -428v-16q0 -59 67 -60l-12 -137h-117q-213 0 -213 188q0 12 2 25l35 424v18q0 74 -68 74h-147l-63 -729h-273l119 1372h-80l12 135h494q141 0 231 -59q104 -70 105 -203q0 -316 -119 -422zM700 1276q2 41 -24.5 68.5t-69.5 27.5h-121 l-45 -506h140q88 0 96 103z" />
<glyph unicode="S" horiz-adv-x="815" d="M760 1509l-12 -137h-132q-102 0 -143 -26q-78 -51 -78 -136q0 -80 62 -159l252 -328q92 -119 92 -277q0 -211 -162 -337q-137 -109 -352 -109h-203l14 137h176q121 0 186.5 56.5t65.5 144.5q0 92 -67 184l-283 391q-59 82 -59 189q0 188 151 307q127 100 312 100h180z " />
<glyph unicode="T" horiz-adv-x="720" d="M809 1507l-12 -135h-197l-119 -1372h-274l121 1372h-197l12 135h666z" />
<glyph unicode="U" horiz-adv-x="1028" d="M1012 1509l-111 -1280v-20q0 -72 86 -72l-12 -137h-121q-113 0 -176 59q-109 -59 -236 -59q-133 0 -227 66q-106 74 -106 202v23l94 1081h-74l12 135h346l-104 -1200v-22q0 -137 113 -138q59 0 98 54q35 47 39 106l102 1202h277z" />
<glyph unicode="V" horiz-adv-x="911" d="M981 1509l-88 -1013q-18 -203 -173 -349.5t-358 -148.5h-274l119 1374h-72l12 137h349l-121 -1374q86 2 153.5 61.5t75.5 143.5l103 1169h274z" />
<glyph unicode="W" horiz-adv-x="1546" d="M1520 1509l-119 -1372h108l-10 -137h-1020q-162 0 -264 80q-115 88 -100 244l90 1048h-78l12 137h353l-105 -1204q-14 -158 107 -158h118l119 1362h275l-105 -1204q-14 -158 107 -158h118l119 1362h275z" />
<glyph unicode="X" horiz-adv-x="1019" d="M1049 1509l-43 -489q-14 -164 -160 -254q129 -90 115 -254l-27 -299q-6 -74 55 -76l-12 -137h-103q-102 0 -159 51q-63 57 -53 162l30 338q6 57 -31.5 99t-97.5 42q-57 0 -102 -42t-51 -99l-50 -551h-272l45 512q14 164 160 254q-129 90 -115 254l31 352h-80l12 137h353 l-48 -530q-6 -57 32 -98t97 -41t104.5 41t49.5 98l45 530h275z" />
<glyph unicode="Y" horiz-adv-x="976" d="M1044 1509l-43 -471q-10 -113 -88.5 -196.5t-207.5 -110.5l-64 -731h-272l63 729q-129 23 -197.5 108t-58.5 201l29 334h-76l12 137h348l-45 -512q-4 -57 34 -98t95 -41t103.5 41t50.5 98l43 512h274z" />
<glyph unicode="Z" horiz-adv-x="944" d="M1008 1507l-648 -1370h537l-12 -137h-885l645 1372h-414l13 135h764z" />
<glyph unicode="[" horiz-adv-x="514" d="M596 1509l-12 -137h-164l-148 -1685h164l-16 -138h-432l172 1960h436z" />
<glyph unicode="\" horiz-adv-x="856" d="M971 -416h-189l-663 1925h188z" />
<glyph unicode="]" horiz-adv-x="522" d="M-25 -453l13 138h164l147 1685h-164l17 137h432l-172 -1960h-437z" />
<glyph unicode="^" horiz-adv-x="1052" d="M545 1194l-355 -846l-159 66l432 1032h164l434 -1032l-160 -66zM545 1194z" />
<glyph unicode="_" horiz-adv-x="1024" d="M1024 -147h-1024v102h1024v-102z" />
<glyph unicode="`" horiz-adv-x="468" d="M541 1217l-60 -123l-370 172l57 125z" />
<glyph unicode="a" d="M952 137l-12 -137h-96q-143 0 -209 84q-90 -84 -211 -84h-43q-139 0 -238 74q-109 82 -96 217l39 459q12 133 135 217q111 74 250 73h473l-70 -811q-8 -88 78 -92zM657 903h-196q-88 0 -96 -102l-46 -527q-12 -137 117 -137q63 0 112.5 45t55.5 109z" />
<glyph unicode="b" horiz-adv-x="989" d="M997 750l-41 -459q-12 -143 -145 -223q-111 -68 -260 -68q-141 0 -217 84q-84 -84 -223 -84h-101l13 137q88 4 96 92l112 1280h379l-10 -137h-104l-29 -332h197q139 0 237 -73q108 -84 96 -217zM729 801q8 102 -78 102h-196l-56 -612q-6 -63 36 -108.5t106 -45.5 q129 0 141 137z" />
<glyph unicode="c" horiz-adv-x="747" d="M754 1040l-13 -137h-290q-39 0 -66 -38t-31 -81l-47 -538q-2 -45 35 -77t84 -32q63 0 112.5 45t55.5 109h137q-10 -119 -103 -205t-214 -86h-43q-133 0 -228 66q-106 74 -106 202v23l41 459q12 133 133 217q111 74 252 73h291z" />
<glyph unicode="d" horiz-adv-x="991" d="M985 1509l-113 -1280q-8 -92 86 -92l-12 -137h-102q-141 0 -211 84q-90 -84 -232 -84q-150 0 -249 68q-117 78 -105 223l39 459q12 133 135 217q111 74 250 73h197l30 332h-77l12 137h352zM657 903h-198q-86 0 -94 -102l-46 -527q-12 -137 115 -137q63 0 112.5 45 t55.5 109z" />
<glyph unicode="e" horiz-adv-x="755" d="M772 750h-137q6 63 -33 105t-94 48q-76 6 -120 -51t-44 -133q0 -131 96 -131h254l-12 -135h-252q-55 0 -89 -52.5t-34 -119.5q0 -63 34 -106.5t99 -39.5q55 4 101.5 46t52.5 110h137q-12 -139 -119 -219q-98 -72 -239 -72q-135 0 -236 82q-106 84 -98 209q10 143 141 229 q-113 106 -102 230q12 133 135 215q111 76 250 75q143 0 227 -71q94 -78 82 -219z" />
<glyph unicode="f" horiz-adv-x="702" d="M786 1509l-12 -137h-156q-35 0 -63.5 -34.5t-32.5 -86.5l-18 -211h149l-12 -137h-149l-93 -1059q-10 -123 -115.5 -208t-252.5 -85h-156l12 138h140q86 0 96 121l94 1093h-129l12 137h129l17 177q12 137 116 219q96 74 234 73h190z" />
<glyph unicode="g" horiz-adv-x="854" d="M889 1040l-12 -137h-115q23 -43 16 -102l-30 -352q-10 -115 -119 -183q164 -111 145 -301h88l-12 -137h-88l-6 -78q-8 -113 -117 -182q-94 -59 -213 -60h-135q-121 0 -203 60q-96 68 -86 182l18 215h482q6 76 -37 154q-47 88 -119 88q-117 0 -199 61q-94 68 -84 181 l31 352q10 113 117 180q94 59 213 59h465zM506 801q4 51 -14.5 77.5t-45.5 26.5q-70 -2 -77 -104l-31 -352q-8 -104 59 -107q66 -2 76 107zM489 -172h-206l-7 -78q-4 -55 24 -87t69 -32t73.5 32t38.5 87z" />
<glyph unicode="h" horiz-adv-x="983" d="M948 133l-12 -137h-107q-100 0 -161 51q-70 57 -62 158l45 536q12 156 -98 156h-111l-77 -897h-275l121 1372h-80l12 137h353l-41 -469h110q164 0 260 -71q113 -82 99 -244l-43 -520q-4 -45 14 -62q12 -10 53 -10z" />
<glyph unicode="i" horiz-adv-x="493" d="M475 1370q0 -57 -41 -99t-98 -42t-98 41t-41 100q0 57 41 98t98 41t98 -41t41 -98zM463 137l-12 -137h-41q-150 0 -232 68.5t-72 187.5l58 647h-78l12 137h351l-68 -784q-8 -107 82 -119z" />
<glyph unicode="j" horiz-adv-x="411" d="M469 1370q0 -57 -41 -99t-100 -42q-57 0 -98.5 42t-41.5 99t41 98t99 41q57 0 99 -41t42 -98zM444 1040l-104 -1196q-10 -121 -124 -207t-263 -86h-137l12 138h137q86 0 96 121l97 1093h-74l12 137h348z" />
<glyph unicode="k" horiz-adv-x="966" d="M1010 1040l-375 -370q117 -27 180 -101q72 -82 64 -202l-11 -142q-6 -84 70 -88l-10 -137h-94q-106 0 -170 41q-78 51 -72 149l12 177q4 68 -20 118q-31 59 -97 60q-43 0 -92 -33l-45 -512h-272l119 1372h-78l12 137h352l-69 -790l323 321h273z" />
<glyph unicode="l" horiz-adv-x="495" d="M489 1509l-108 -1253q-10 -111 84 -119l-10 -137h-45q-150 0 -232 68.5t-72 187.5l99 1116h-74l12 137h346z" />
<glyph unicode="m" horiz-adv-x="1488" d="M1456 137l-12 -137h-127q-100 0 -164 49q-70 57 -61 160l49 567q4 47 -22.5 87t-78.5 40h-110l-80 -903h-275l68 776q4 47 -22.5 87t-77.5 40h-111l-80 -903h-272l78 903h-72l12 137h955q172 0 266 -69q106 -76 94 -228l-45 -518q-6 -61 16 -78q13 -10 72 -10z" />
<glyph unicode="n" horiz-adv-x="983" d="M952 137l-12 -137h-117q-102 0 -164 49q-70 57 -61 160l49 567q4 47 -20 84q-31 43 -80 43h-111l-80 -903h-274l80 903h-78l12 137h463q170 0 264 -67q106 -78 95 -230l-44 -518q-4 -59 15 -75q12 -13 63 -13z" />
<glyph unicode="o" horiz-adv-x="831" d="M846 750l-41 -459q-10 -121 -123 -206t-262 -85h-41q-141 0 -240 74q-109 82 -96 217l41 459q12 135 135 217q109 74 250 73h43q139 0 238 -73q108 -84 96 -217zM571 750q6 74 -21.5 112.5t-72.5 38.5q-43 0 -78 -37q-37 -43 -43 -114l-39 -459q-6 -70 23 -111t72 -43 t78.5 38t41.5 116z" />
<glyph unicode="p" horiz-adv-x="901" d="M911 750l-41 -459q-12 -135 -135 -217q-111 -74 -250 -74h-43q-51 0 -86 8l-39 -457h-274l119 1352h-78l10 137h481q141 0 240 -73q108 -82 96 -217zM639 784q10 119 -92 119h-111l-55 -612q-6 -72 22.5 -113t71.5 -41q45 0 80 40t41 114z" />
<glyph unicode="q" horiz-adv-x="903" d="M952 1040l-12 -137h-78l-119 -1352h-272l39 457q-35 -8 -86 -8h-43q-141 0 -238 74q-109 82 -96 217l39 459q12 133 135 217q111 74 250 73h481zM588 903h-127q-88 0 -96 -102l-46 -510q-6 -72 23 -113t72 -41t78.5 41t42.5 113z" />
<glyph unicode="r" horiz-adv-x="774" d="M809 1040l-27 -284h-149l10 135q-94 -35 -159.5 -127t-73.5 -195l-50 -569h-274l80 903h-78l12 137h351l-7 -88q106 88 273 88h92z" />
<glyph unicode="s" horiz-adv-x="724" d="M696 293q0 121 -92 235l-201 248q-27 33 -26 66q0 61 102 61h162l12 137h-225q-139 0 -238 -67q-113 -76 -112 -211q0 -106 80 -199l164 -186q45 -51 45 -119q0 -121 -127 -121h-220l-12 -137h326q147 0 248 72q114 82 114 221z" />
<glyph unicode="t" horiz-adv-x="548" d="M596 1040l-12 -137h-117l-57 -649q-10 -104 84 -115l-13 -139h-96q-119 0 -186 63q-74 68 -64 191l58 649h-109l12 137h109l20 242h275l-23 -242h119z" />
<glyph unicode="u" horiz-adv-x="954" d="M924 137l-13 -137h-489q-154 0 -242 78q-96 84 -82 237l52 588h-72l12 137h344l-63 -759q-4 -57 21.5 -100.5t76.5 -43.5h98l80 903h275l-78 -903h80z" />
<glyph unicode="v" horiz-adv-x="899" d="M930 1040l-47 -544q-18 -203 -173 -349.5t-358 -148.5h-274l78 905h-72l12 137h348l-79 -905q86 0 153.5 60.5t75.5 144.5l61 700h275z" />
<glyph unicode="w" horiz-adv-x="1509" d="M1473 137l-13 -137h-987q-172 0 -266 70q-106 76 -94 227l53 606h-80l10 137h359l-70 -776q-4 -47 21 -84q31 -43 79 -43h113l78 903h274l-67 -776q-4 -47 20 -84q31 -43 80 -43h111l80 903h274l-80 -903h105z" />
<glyph unicode="x" horiz-adv-x="952" d="M985 1040l-12 -137h-53l-11 -112q-10 -111 -100 -207q-25 -27 -59 -52q27 -18 51 -51q74 -96 63 -207l-12 -137h70l-13 -137h-344l25 274q8 88 -19.5 137.5t-72.5 49.5q-43 0 -79 -49.5t-44 -137.5l-23 -274h-334l11 137h61l12 137q10 115 99 207q33 33 59 51 q-37 33 -51 52q-70 90 -62 207l9 112h-64l12 137h338l-22 -249q-8 -86 19.5 -135.5t70.5 -49.5q45 0 81 49.5t44 135.5l22 249h328z" />
<glyph unicode="y" horiz-adv-x="890" d="M924 1040l-105 -1196q-10 -121 -123.5 -207t-263.5 -86h-276l12 138h260q102 0 113 121l16 190h-90q-160 0 -260 78q-111 86 -98 237l51 588h-74l12 137h348l-67 -776q-10 -127 100 -127h90l80 903h275z" />
<glyph unicode="z" horiz-adv-x="909" d="M987 1040l-579 -903h469l-13 -137h-882l579 903h-465l13 137h878z" />
<glyph unicode="{" horiz-adv-x="673" d="M754 1509l-13 -137h-96q-35 0 -63.5 -33.5t-32.5 -87.5l-39 -448q-14 -168 -168 -273q135 -100 121 -270l-41 -455q-4 -53 18.5 -86.5t57.5 -33.5h96l-12 -138h-129q-137 0 -222 74q-92 82 -79 219l45 500q6 59 -35 103t-101 44l7 82q61 2 108 45t53 103l43 500 q12 137 117 219q98 74 234 73h131z" />
<glyph unicode="|" horiz-adv-x="307" d="M283 -516h-174v2052h174v-2052z" />
<glyph unicode="}" horiz-adv-x="655" d="M-33 -453l13 138h96q35 0 63.5 33.5t32.5 86.5l39 449q14 168 168 272q-135 100 -121 271l41 454q4 53 -18.5 87t-57.5 34h-96l12 137h129q137 0 221 -73q92 -82 80 -219l-45 -500q-6 -59 35 -103.5t100 -44.5l-6 -82q-61 -2 -108 -45t-53 -102l-43 -500 q-12 -137 -117 -219q-98 -74 -234 -74h-131z" />
<glyph unicode="~" horiz-adv-x="1433" d="M1475 891q-23 -166 -177 -268q-109 -74 -231 -74q-94 0 -178 47l-342 188q-55 31 -119 31q-80 0 -137.5 -47t-71.5 -147l-172 20q18 170 133 262q106 86 248 86q109 0 205 -53l342 -188q45 -25 94 -25q68 0 131 43q92 63 103 145z" />
<glyph unicode="&#xa1;" horiz-adv-x="358" d="M-10 -414l139 973q2 16 2 29q0 59 -63 59l12 146q154 0 207 -72q41 -57 35 -199l-33 -790h80l-13 -146h-366zM84 963q0 55 39 94t94 39t94 -39t39 -94t-39 -94.5t-94 -39.5t-94 39.5t-39 94.5z" />
<glyph unicode="&#xa2;" horiz-adv-x="741" d="M768 1274l-12 -137h-178l-66 -750q86 45 96 137h137q-8 -100 -77.5 -179t-167.5 -103l-21 -242h-137l20 233q-127 8 -212 74q-98 74 -99 195v22l41 459q12 129 123 211q102 74 238 80l20 235h137l-20 -235h178zM440 1133q-63 -27 -71 -115l-47 -537q-2 -57 53 -92z" />
<glyph unicode="&#xa3;" horiz-adv-x="919" d="M975 1217h-137q8 76 -39 120q-41 39 -107 39t-112 -39q-55 -45 -62 -120l-39 -445h209l-10 -137h-211l-29 -344q-6 -82 -65 -154h438l-12 -137h-783l13 137h34q88 0 97 103l35 395h-121l10 137h123l39 445q12 135 135 219q111 74 250 73h78q121 0 198.5 -85.5 t67.5 -206.5z" />
<glyph unicode="&#xa4;" horiz-adv-x="923" d="M979 1217h-135q6 72 -38 112.5t-108 40.5q-66 0 -114 -37q-53 -43 -60 -116l-24 -299h352l-88 -138h-277l-4 -53h248l-88 -135h-172l-31 -336q-4 -51 18.5 -85t57.5 -34h180l-12 -137h-180q-139 0 -238 74q-109 84 -96 217l27 301h-150l86 135h76l4 53h-150l89 138h73 l23 266q14 158 137 248q109 78 252 77h76q121 0 198.5 -85.5t67.5 -206.5z" />
<glyph unicode="&#xa5;" horiz-adv-x="1028" d="M1057 944l-13 -137h-182q-37 -31 -82 -53h260l-12 -138h-344l-53 -616h-275l54 616h-351l13 138h268q-41 20 -74 53h-190l12 137h105q-8 49 -5 86l31 342h-84l10 137h361l-43 -479q-8 -84 26 -135q29 -45 78 -45t88 47t47 131l43 481h273l-43 -481q-4 -47 -17 -84h99z " />
<glyph unicode="&#xa6;" horiz-adv-x="303" d="M283 551h-174v983h174v-983zM283 -514h-174v983h174v-983z" />
<glyph unicode="&#xa7;" horiz-adv-x="897" d="M915 735q0 129 -114 260l-221 250q-35 39 -35 72q0 55 98 55h162v137h-225q-131 0 -222 -61q-104 -70 -104 -195q0 -115 92 -217q-113 -12 -186 -73q-82 -70 -82 -177q0 -119 100 -223l178 -186q57 -59 58 -133q0 -106 -119 -107h-219v-137h325q137 0 232 63 q109 72 108 201q0 104 -73 211q109 20 174 84q73 72 73 176zM588 711q0 57 -37 106q-14 20 -78 86h-4q-98 0 -98 -55q0 -33 35 -72l135 -153q47 29 47 88z" />
<glyph unicode="&#xa8;" horiz-adv-x="380" d="M438 1094h-137v137h137v-137zM238 1094h-138v137h138v-137z" />
<glyph unicode="&#xa9;" horiz-adv-x="1626" d="M1647 752q0 -324 -230.5 -553.5t-554.5 -229.5t-554 229.5t-230 553.5t230.5 554t553.5 230q324 0 554.5 -230t230.5 -554zM1509 752q0 268 -189.5 457.5t-457.5 189.5q-266 0 -456.5 -189.5t-190.5 -457.5q0 -266 190.5 -457t456.5 -191q268 0 457.5 191t189.5 457z M1110 430q0 -84 -59.5 -144.5t-143.5 -60.5q-66 0 -92 4q-82 12 -141.5 66.5t-59.5 134.5v645q0 96 70 152q63 51 158 51h245v-96h-223q-59 0 -59 -82v-670q0 -57 30.5 -86t73.5 -25t74 34t31 77h96z" />
<glyph unicode="&#xaa;" horiz-adv-x="587" d="M631 950l-8 -82h-58q-86 0 -125 52q-53 -51 -127 -52h-24q-84 0 -144 43q-66 49 -57 131l23 277q8 80 82 129q66 45 149 45h285l-43 -487q-4 -54 47 -56zM455 1411h-119q-53 0 -57 -61l-27 -318q-8 -82 70 -82q37 0 66.5 28t33.5 64z" />
<glyph unicode="&#xab;" horiz-adv-x="563" d="M588 510h-166l-168 244l168 245h166l-168 -245zM383 510h-166l-168 244l168 245h166l-168 -245z" />
<glyph unicode="&#xac;" horiz-adv-x="1011" d="M1018 414h-174v223h-791v174h965v-397z" />
<glyph unicode="&#xad;" horiz-adv-x="442" d="M459 860l-19 -205h-362l18 205h363z" />
<glyph unicode="&#xae;" horiz-adv-x="800" d="M846 1137q0 -154 -109.5 -263.5t-263.5 -109.5t-263.5 109.5t-109.5 263.5t109.5 263t263.5 109t263.5 -109t109.5 -263zM754 1137q0 115 -83 196.5t-198 81.5t-196.5 -82t-81.5 -196q0 -115 81.5 -198t196.5 -83t198 83t83 198zM618 930h-28q-66 0 -82 57l-41 137h-6 v-194h-78v389h-35v39h152q102 0 102 -82v-53q0 -59 -63 -78l47 -152q8 -25 32 -24v-39zM524 1208v88q0 23 -24 23h-39v-141h39q24 -1 24 30z" />
<glyph unicode="&#xaf;" horiz-adv-x="354" d="M389 1094h-264v112h264v-112z" />
<glyph unicode="&#xb0;" horiz-adv-x="350" d="M436 1350q0 -66 -47 -113t-113 -47t-111.5 47t-45.5 113t46 111.5t111 45.5q66 0 113 -45.5t47 -111.5zM365 1350q0 35 -27 60.5t-62 25.5t-60.5 -26t-25.5 -60q0 -35 26 -61.5t60 -26.5q35 0 62 26.5t27 61.5z" />
<glyph unicode="&#xb1;" horiz-adv-x="1259" d="M1225 0h-1145v174h1145v-174zM739 694v-401h-174v401h-485v174h485v406h174v-406h486v-174h-486z" />
<glyph unicode="&#xb2;" horiz-adv-x="460" d="M539 1374q0 -100 -90 -196l-183 -193h217l-8 -82h-401l6 82l258 264q63 63 53 133q-12 70 -88 64q-86 -10 -94 -92l-2 -29h-82l2 29q8 84 69.5 129t147.5 45q195 0 195 -154z" />
<glyph unicode="&#xb3;" horiz-adv-x="446" d="M537 1526l-175 -301q137 -39 127 -166l-16 -199q-6 -72 -74.5 -124t-156.5 -52h-27q-72 0 -119 52t-41 124h82q-2 -39 22.5 -66.5t63.5 -27.5q76 0 84 94l21 230q6 61 -45 61h-131l170 293h-197l6 82h406z" />
<glyph unicode="&#xb4;" horiz-adv-x="440" d="M516 1266l-371 -172l-59 123l373 174z" />
<glyph unicode="&#xb5;" horiz-adv-x="1048" d="M1012 137l-13 -137h-155q-119 0 -193 57q-90 -57 -190 -57q-57 0 -107 12l-22 -266h-275l101 1157h-72l12 135h344l-61 -723v-22q0 -59 25 -103q33 -51 88 -51q41 0 86 29l75 870h273l-70 -813v-16q0 -57 53 -70q9 -2 101 -2z" />
<glyph unicode="&#xb6;" d="M1024 1372h-104v-1622h-136v1622h-71v-1622h-135v885h-37q-199 0 -320 122t-121 316q0 195 121 315.5t320 120.5h483v-137z" />
<glyph unicode="&#xb7;" horiz-adv-x="321" d="M322 614q0 -51 -37 -88t-90 -37q-51 0 -88 37t-37 88q0 53 35.5 90t89.5 37q53 0 90 -37t37 -90z" />
<glyph unicode="&#xb8;" horiz-adv-x="636" d="M471 -262q0 -78 -52 -129t-130 -51h-209v135h209q45 0 45 45t-45 45h-154l115 270h149l-59 -139q59 -14 95 -64.5t36 -111.5z" />
<glyph unicode="&#xb9;" horiz-adv-x="362" d="M389 991l-8 -82h-299l6 82h68l41 461h-70l8 82h234l-47 -543h67z" />
<glyph unicode="&#xba;" horiz-adv-x="499" d="M580 1358l-25 -277q-6 -72 -73.5 -123t-157.5 -51h-25q-84 0 -143 43q-66 51 -58 131l25 277q6 80 80 129q66 45 149 45h27q84 0 141 -45q66 -49 60 -129zM414 1358q8 90 -56 90q-66 0 -73 -90l-23 -277q-8 -90 57 -92q63 -2 72 92z" />
<glyph unicode="&#xbb;" horiz-adv-x="575" d="M588 510h-166l-168 244l168 245h166l-168 -245zM383 510h-166l-168 244l168 245h166l-168 -245z" />
<glyph unicode="&#xbc;" horiz-adv-x="1013" d="M1087 1509l-894 -1509h-189l897 1509h186zM449 901l-9 -92h-336l9 92h75l45 512h-77l8 92h260l-51 -604h76zM975 94l-8 -92h-105l-22 -242h-183l21 242h-371l418 696h197l-52 -604h105zM709 356l-158 -262h135z" />
<glyph unicode="&#xbd;" horiz-adv-x="1038" d="M1075 1509l-895 -1509h-188l897 1509h186zM432 897l-8 -92h-336l8 92h76l45 512h-78l8 92h261l-52 -604h76zM1040 530q0 -111 -100 -219l-203 -213h240l-8 -92h-449l8 90l289 295q70 72 57 150q-12 80 -96 69q-39 -4 -69.5 -31.5t-34.5 -70.5l-4 -31h-90l2 31 q8 94 80 147q66 47 161 47q92 0 152 -38q65 -46 65 -134z" />
<glyph unicode="&#xbe;" horiz-adv-x="1132" d="M1247 1509l-895 -1509h-188l897 1509h186zM600 1495l-192 -336q66 -18 106.5 -67.5t34.5 -116.5l-21 -223q-6 -80 -81.5 -137.5t-174.5 -57.5h-30q-80 0 -132.5 57.5t-46.5 137.5h93q-4 -43 24.5 -74t69.5 -31q86 0 96 105l23 258q6 68 -52 67h-145l188 326h-219l9 92 h450zM1106 96l-8 -92h-105l-22 -242h-183l21 242h-371l418 696h197l-52 -604h105zM840 358l-158 -262h135z" />
<glyph unicode="&#xbf;" horiz-adv-x="753" d="M8 -57q0 201 217 356q61 35 195 117q82 53 98 69q43 45 49 115l17 174h147l-24 -262q-10 -106 -56 -176q-37 -57 -122 -117.5t-119 -103.5q-59 -74 -68 -181q-6 -82 43 -139t131 -57h199l-13 -146h-235q-180 0 -309 84q-150 99 -150 267zM524 969q0 55 39 94t94 39 t94.5 -39t39.5 -94t-39 -94t-95 -39q-55 0 -94 39t-39 94z" />
<glyph unicode="&#xc0;" horiz-adv-x="915" d="M920 1192l-86 -979q-6 -74 59 -76l-12 -137h-109q-102 0 -160 51q-63 57 -53 162l31 348h-248l-49 -561h-273l105 1192q14 164 158 248q115 70 266 69q152 0 256 -69q129 -86 115 -248zM649 1231q6 59 -24.5 100t-87.5 41q-55 0 -92 -41t-44 -100l-47 -533h248zM647 1659 l-60 -123l-370 172l57 125z" />
<glyph unicode="&#xc1;" horiz-adv-x="915" d="M920 1192l-86 -979q-6 -74 59 -76l-12 -137h-109q-102 0 -160 51q-63 57 -53 162l31 348h-248l-49 -561h-273l105 1192q14 164 158 248q115 70 266 69q152 0 256 -69q129 -86 115 -248zM649 1231q6 59 -24.5 100t-87.5 41q-55 0 -92 -41t-44 -100l-47 -533h248zM946 1704 l-371 -172l-59 123l373 174z" />
<glyph unicode="&#xc2;" horiz-adv-x="915" d="M920 1192l-86 -979q-6 -74 59 -76l-12 -137h-109q-102 0 -160 51q-63 57 -53 162l31 348h-248l-49 -561h-273l105 1192q14 164 158 248q115 70 266 69q152 0 256 -69q129 -86 115 -248zM649 1231q6 59 -24.5 100t-87.5 41q-55 0 -92 -41t-44 -100l-47 -533h248zM828 1641 l-80 -111l-189 137l-190 -137l-80 111l270 196z" />
<glyph unicode="&#xc3;" horiz-adv-x="915" d="M920 1192l-86 -979q-6 -74 59 -76l-12 -137h-109q-102 0 -160 51q-63 57 -53 162l31 348h-248l-49 -561h-273l105 1192q14 164 158 248q115 70 266 69q152 0 256 -69q129 -86 115 -248zM649 1231q6 59 -24.5 100t-87.5 41q-55 0 -92 -41t-44 -100l-47 -533h248zM852 1669 q-59 -129 -205 -129q-49 0 -92 20l-43 21q-16 8 -35 8q-57 0 -82 -51l-123 57q59 127 203 127q49 0 94 -18l43 -19q18 -8 37 -8q55 0 78 49z" />
<glyph unicode="&#xc4;" horiz-adv-x="915" d="M920 1192l-86 -979q-6 -74 59 -76l-12 -137h-109q-102 0 -160 51q-63 57 -53 162l31 348h-248l-49 -561h-273l105 1192q14 164 158 248q115 70 266 69q152 0 256 -69q129 -86 115 -248zM649 1231q6 59 -24.5 100t-87.5 41q-55 0 -92 -41t-44 -100l-47 -533h248zM733 1536 h-137v137h137v-137zM533 1536h-138v137h138v-137z" />
<glyph unicode="&#xc5;" horiz-adv-x="915" d="M920 1192l-86 -979q-6 -74 59 -76l-12 -137h-109q-102 0 -160 51q-63 57 -53 162l31 348h-248l-49 -561h-273l105 1192q14 164 158 248q115 70 266 69q152 0 256 -69q129 -86 115 -248zM649 1231q6 59 -24.5 100t-87.5 41q-55 0 -92 -41t-44 -100l-47 -533h248zM779 1732 q0 -82 -57.5 -139t-139.5 -57q-80 0 -138.5 57t-58.5 139t58.5 139.5t138.5 57.5q82 0 139.5 -57.5t57.5 -139.5zM695 1732q0 45 -33 78t-80 33q-45 0 -78 -33t-33 -78t33 -77.5t78 -32.5q47 0 80 32.5t33 77.5z" />
<glyph unicode="&#xc6;" horiz-adv-x="1292" d="M1370 1509l-10 -137h-432l-49 -557h299l-13 -129h-297l-49 -549h432l-12 -137h-704l59 686h-240l-59 -686h-275l105 1184q14 156 143 246q115 80 277 79h825zM637 1186q8 84 -23.5 131t-81.5 47q-49 0 -86 -45q-43 -51 -49 -135l-30 -369h237z" />
<glyph unicode="&#xc7;" horiz-adv-x="772" d="M836 1509l-13 -137h-317q-37 0 -65.5 -33.5t-32.5 -87.5l-84 -960q-8 -82 36 -125q37 -35 101 -31q61 4 109 47t55 109h137q-10 -119 -103.5 -205t-214.5 -86q-94 0 -131 6q-117 18 -190 90q-82 80 -72 195l80 926q12 137 117 219q98 74 233 73h355zM553 -262 q0 -78 -52 -129t-130 -51h-209v135h209q45 0 45 45t-45 45h-154l115 270h149l-59 -139q59 -14 95 -64.5t36 -111.5z" />
<glyph unicode="&#xc8;" horiz-adv-x="749" d="M836 1509l-13 -137h-276q-59 0 -104.5 -42t-49.5 -99l-35 -408h342l-10 -137h-344l-37 -410q-6 -57 32 -99t97 -42h277l-13 -135h-372q-131 0 -216 93t-73 224l76 875q12 131 113.5 224t232.5 93h373zM711 1655l-60 -123l-370 172l57 125z" />
<glyph unicode="&#xc9;" horiz-adv-x="749" d="M836 1509l-13 -137h-276q-59 0 -104.5 -42t-49.5 -99l-35 -408h342l-10 -137h-344l-37 -410q-6 -57 32 -99t97 -42h277l-13 -135h-372q-131 0 -216 93t-73 224l76 875q12 131 113.5 224t232.5 93h373zM952 1706l-371 -172l-59 123l373 174z" />
<glyph unicode="&#xca;" horiz-adv-x="749" d="M836 1509l-13 -137h-276q-59 0 -104.5 -42t-49.5 -99l-35 -408h342l-10 -137h-344l-37 -410q-6 -57 32 -99t97 -42h277l-13 -135h-372q-131 0 -216 93t-73 224l76 875q12 131 113.5 224t232.5 93h373zM852 1645l-80 -111l-189 137l-190 -137l-80 111l270 196z" />
<glyph unicode="&#xcb;" horiz-adv-x="749" d="M836 1509l-13 -137h-276q-59 0 -104.5 -42t-49.5 -99l-35 -408h342l-10 -137h-344l-37 -410q-6 -57 32 -99t97 -42h277l-13 -135h-372q-131 0 -216 93t-73 224l76 875q12 131 113.5 224t232.5 93h373zM784 1536h-137v137h137v-137zM584 1536h-138v137h138v-137z" />
<glyph unicode="&#xcc;" horiz-adv-x="335" d="M420 1509l-131 -1509h-275l131 1509h275zM439 1657l-60 -123l-370 172l57 125z" />
<glyph unicode="&#xcd;" horiz-adv-x="335" d="M420 1509l-131 -1509h-275l131 1509h275zM637 1706l-371 -172l-59 123l373 174z" />
<glyph unicode="&#xce;" horiz-adv-x="335" d="M420 1509l-131 -1509h-275l131 1509h275zM553 1637l-80 -111l-189 137l-190 -137l-80 111l270 196z" />
<glyph unicode="&#xcf;" horiz-adv-x="335" d="M420 1509l-131 -1509h-275l131 1509h275zM461 1538h-137v137h137v-137zM261 1538h-138v137h138v-137z" />
<glyph unicode="&#xd0;" horiz-adv-x="925" d="M979 1217l-82 -926q-10 -125 -98 -205q-92 -86 -236 -86h-465l62 686h-76l10 129h76l49 557h-82l10 137h549q119 0 206 -86.5t77 -205.5zM705 1217q4 41 -27 92q-37 63 -98 63h-86l-50 -557h119l-12 -129h-119l-47 -549h88q59 0 102 45t50 109z" />
<glyph unicode="&#xd1;" horiz-adv-x="1005" d="M991 1186l-84 -973q-6 -74 60 -76l-13 -137h-110q-100 0 -158 51q-66 57 -55 162l86 973q8 84 -23.5 131t-81.5 47l-118 -2l-119 -1362h-275l119 1372h-82l13 137h475q164 0 266 -79q114 -88 100 -244zM891 1665q-59 -129 -205 -129q-49 0 -92 20l-43 21q-16 8 -35 8 q-57 0 -82 -51l-123 57q59 127 203 127q49 0 94 -18l43 -19q18 -8 37 -8q55 0 78 49z" />
<glyph unicode="&#xd2;" horiz-adv-x="917" d="M969 1192l-78 -875q-12 -135 -117 -223q-111 -94 -278 -94h-90q-166 0 -261 94q-92 88 -79 223l75 875q12 135 122 226t276 91h88q166 0 260 -91t82 -226zM698 1231q4 57 -32.5 99t-94.5 42q-57 0 -102 -42t-51 -99l-84 -955q-6 -57 31.5 -99t97.5 -42q59 0 104 41 t49 100zM705 1657l-60 -123l-370 172l57 125z" />
<glyph unicode="&#xd3;" horiz-adv-x="917" d="M969 1192l-78 -875q-12 -135 -117 -223q-111 -94 -278 -94h-90q-166 0 -261 94q-92 88 -79 223l75 875q12 135 122 226t276 91h88q166 0 260 -91t82 -226zM698 1231q4 57 -32.5 99t-94.5 42q-57 0 -102 -42t-51 -99l-84 -955q-6 -57 31.5 -99t97.5 -42q59 0 104 41 t49 100zM952 1706l-371 -172l-59 123l373 174z" />
<glyph unicode="&#xd4;" horiz-adv-x="917" d="M969 1192l-78 -875q-12 -135 -117 -223q-111 -94 -278 -94h-90q-166 0 -261 94q-92 88 -79 223l75 875q12 135 122 226t276 91h88q166 0 260 -91t82 -226zM698 1231q4 57 -32.5 99t-94.5 42q-57 0 -102 -42t-51 -99l-84 -955q-6 -57 31.5 -99t97.5 -42q59 0 104 41 t49 100zM865 1639l-80 -111l-189 137l-190 -137l-80 111l270 196z" />
<glyph unicode="&#xd5;" horiz-adv-x="917" d="M969 1192l-78 -875q-12 -135 -117 -223q-111 -94 -278 -94h-90q-166 0 -261 94q-92 88 -79 223l75 875q12 135 122 226t276 91h88q166 0 260 -91t82 -226zM698 1231q4 57 -32.5 99t-94.5 42q-57 0 -102 -42t-51 -99l-84 -955q-6 -57 31.5 -99t97.5 -42q59 0 104 41 t49 100zM901 1671q-59 -129 -205 -129q-49 0 -92 20l-43 21q-16 8 -35 8q-57 0 -82 -51l-123 57q59 127 203 127q49 0 94 -18l43 -19q18 -8 37 -8q55 0 78 49z" />
<glyph unicode="&#xd6;" horiz-adv-x="917" d="M969 1192l-78 -875q-12 -135 -117 -223q-111 -94 -278 -94h-90q-166 0 -261 94q-92 88 -79 223l75 875q12 135 122 226t276 91h88q166 0 260 -91t82 -226zM698 1231q4 57 -32.5 99t-94.5 42q-57 0 -102 -42t-51 -99l-84 -955q-6 -57 31.5 -99t97.5 -42q59 0 104 41 t49 100zM776 1540h-137v137h137v-137zM576 1540h-138v137h138v-137z" />
<glyph unicode="&#xd7;" horiz-adv-x="1140" d="M604 692l408 408l123 -123l-408 -408l408 -407l-123 -123l-406 407l-407 -407l-123 123l405 407q-109 111 -405 408l123 123zM604 692zM606 446zM481 569zM727 569z" />
<glyph unicode="&#xd8;" horiz-adv-x="876" d="M965 1509l-76 -139q45 -72 37 -153l-82 -926q-10 -121 -123 -206t-262 -85h-78q-109 0 -197 47l-26 -47h-150l74 139q-43 66 -35 152l82 926q12 135 135 219q109 74 250 73h76q111 0 198 -49l27 49h150zM651 1217q10 74 -26 118q-33 39 -84 39t-92 -41t-48 -116l-49 -574 zM621 866l-299 -575q-8 -70 28 -115q31 -41 82 -43t91 38t46 120z" />
<glyph unicode="&#xd9;" horiz-adv-x="1036" d="M1012 1509l-111 -1280v-20q0 -72 86 -72l-12 -137h-121q-113 0 -176 59q-109 -59 -236 -59q-133 0 -227 66q-106 74 -106 202v23l94 1081h-74l12 135h346l-104 -1200v-22q0 -137 113 -138q59 0 98 54q35 47 39 106l102 1202h277zM738 1657l-60 -123l-370 172l57 125z" />
<glyph unicode="&#xda;" horiz-adv-x="1036" d="M1012 1509l-111 -1280v-20q0 -72 86 -72l-12 -137h-121q-113 0 -176 59q-109 -59 -236 -59q-133 0 -227 66q-106 74 -106 202v23l94 1081h-74l12 135h346l-104 -1200v-22q0 -137 113 -138q59 0 98 54q35 47 39 106l102 1202h277zM962 1706l-371 -172l-59 123l373 174z " />
<glyph unicode="&#xdb;" horiz-adv-x="1036" d="M1012 1509l-111 -1280v-20q0 -72 86 -72l-12 -137h-121q-113 0 -176 59q-109 -59 -236 -59q-133 0 -227 66q-106 74 -106 202v23l94 1081h-74l12 135h346l-104 -1200v-22q0 -137 113 -138q59 0 98 54q35 47 39 106l102 1202h277zM897 1643l-80 -111l-189 137l-190 -137 l-80 111l270 196z" />
<glyph unicode="&#xdc;" horiz-adv-x="1036" d="M1012 1509l-111 -1280v-20q0 -72 86 -72l-12 -137h-121q-113 0 -176 59q-109 -59 -236 -59q-133 0 -227 66q-106 74 -106 202v23l94 1081h-74l12 135h346l-104 -1200v-22q0 -137 113 -138q59 0 98 54q35 47 39 106l102 1202h277zM800 1534h-137v137h137v-137zM600 1534 h-138v137h138v-137z" />
<glyph unicode="&#xdd;" horiz-adv-x="970" d="M1044 1509l-43 -471q-10 -113 -88.5 -196.5t-207.5 -110.5l-64 -731h-272l63 729q-129 23 -197.5 108t-58.5 201l29 334h-76l12 137h348l-45 -512q-4 -57 34 -98t95 -41t103.5 41t50.5 98l43 512h274zM1001 1708l-371 -172l-59 123l373 174z" />
<glyph unicode="&#xde;" horiz-adv-x="909" d="M967 1272l-37 -424q-14 -162 -119.5 -292t-263.5 -179q-76 -25 -146 -25h-4l-30 -352h-275l121 1372h-80l12 137h355l-23 -237h490zM680 1135h-213l-57 -643q82 10 149 65q76 59 82 135z" />
<glyph unicode="&#xdf;" horiz-adv-x="1177" d="M1145 256q-37 -150 -154 -209q-92 -47 -276 -47h-234l13 137h221q66 0 104.5 45t38.5 111q0 74 -51 117l-172 143q-80 66 -80 170q0 117 88 227l82 105q47 59 47 141q0 72 -38 124t-99 52q-57 0 -103 -51q-49 -59 -57 -160l-115 -1317q-12 -141 -117.5 -217t-267.5 -76 h-139l12 138h105q121 0 131 121l94 1093h-94l10 137h96l11 121q12 143 143 245.5t303 102.5q150 0 248 -59q115 -68 129 -205q12 -109 -47 -182q-45 -57 -152 -113q-55 -29 -55 -88q0 -47 37 -80l242 -217q106 -96 106 -227q0 -41 -10 -82z" />
<glyph unicode="&#xe0;" d="M952 137l-12 -137h-96q-143 0 -209 84q-90 -84 -211 -84h-43q-139 0 -238 74q-109 82 -96 217l39 459q12 133 135 217q111 74 250 73h473l-70 -811q-8 -88 78 -92zM657 903h-196q-88 0 -96 -102l-46 -527q-12 -137 117 -137q63 0 112.5 45t55.5 109zM684 1217l-60 -123 l-370 172l57 125z" />
<glyph unicode="&#xe1;" d="M952 137l-12 -137h-96q-143 0 -209 84q-90 -84 -211 -84h-43q-139 0 -238 74q-109 82 -96 217l39 459q12 133 135 217q111 74 250 73h473l-70 -811q-8 -88 78 -92zM657 903h-196q-88 0 -96 -102l-46 -527q-12 -137 117 -137q63 0 112.5 45t55.5 109zM926 1266l-371 -172 l-59 123l373 174z" />
<glyph unicode="&#xe2;" d="M952 137l-12 -137h-96q-143 0 -209 84q-90 -84 -211 -84h-43q-139 0 -238 74q-109 82 -96 217l39 459q12 133 135 217q111 74 250 73h473l-70 -811q-8 -88 78 -92zM657 903h-196q-88 0 -96 -102l-46 -527q-12 -137 117 -137q63 0 112.5 45t55.5 109zM834 1196l-80 -111 l-189 137l-190 -137l-80 111l270 196z" />
<glyph unicode="&#xe3;" d="M952 137l-12 -137h-96q-143 0 -209 84q-90 -84 -211 -84h-43q-139 0 -238 74q-109 82 -96 217l39 459q12 133 135 217q111 74 250 73h473l-70 -811q-8 -88 78 -92zM657 903h-196q-88 0 -96 -102l-46 -527q-12 -137 117 -137q63 0 112.5 45t55.5 109zM864 1225 q-59 -129 -205 -129q-49 0 -92 20l-43 21q-16 8 -35 8q-57 0 -82 -51l-123 57q59 127 203 127q49 0 94 -18l43 -19q18 -8 37 -8q55 0 78 49z" />
<glyph unicode="&#xe4;" d="M952 137l-12 -137h-96q-143 0 -209 84q-90 -84 -211 -84h-43q-139 0 -238 74q-109 82 -96 217l39 459q12 133 135 217q111 74 250 73h473l-70 -811q-8 -88 78 -92zM657 903h-196q-88 0 -96 -102l-46 -527q-12 -137 117 -137q63 0 112.5 45t55.5 109zM766 1094h-137v137 h137v-137zM566 1094h-138v137h138v-137z" />
<glyph unicode="&#xe5;" d="M952 137l-12 -137h-96q-143 0 -209 84q-90 -84 -211 -84h-43q-139 0 -238 74q-109 82 -96 217l39 459q12 133 135 217q111 74 250 73h473l-70 -811q-8 -88 78 -92zM657 903h-196q-88 0 -96 -102l-46 -527q-12 -137 117 -137q63 0 112.5 45t55.5 109zM799 1284 q0 -82 -57.5 -139t-139.5 -57q-80 0 -138.5 57t-58.5 139t58.5 139.5t138.5 57.5q82 0 139.5 -57.5t57.5 -139.5zM715 1284q0 45 -33 78t-80 33q-45 0 -78 -33t-33 -78t33 -77.5t78 -32.5q47 0 80 32.5t33 77.5z" />
<glyph unicode="&#xe6;" horiz-adv-x="1310" d="M1325 750h-135v12q2 59 -41 100t-102 41q-129 0 -142 -153l-12 -162h354l-12 -135h-354q-14 -172 -15 -185q0 -133 119 -133q63 0 110.5 45t53.5 111h137q-10 -119 -103 -205t-214 -86h-43q-190 0 -287 123q-102 -123 -272 -123q-141 0 -236 76q-100 80 -100 219 q0 35 22 86q43 96 152 154q98 51 213 51h200q14 174 15 184q0 133 -113 133q-66 0 -116 -45t-54 -108h-137q8 119 102.5 204.5t212.5 85.5h43q123 0 217 -59q106 59 273 59q111 0 188.5 -76.5t77.5 -185.5q0 -14 -2 -28zM602 449h-145q-68 0 -110 -56.5t-42 -126.5 q0 -129 115 -129q63 0 112.5 45t55.5 109z" />
<glyph unicode="&#xe7;" horiz-adv-x="747" d="M754 1040l-13 -137h-290q-39 0 -66 -38t-31 -81l-47 -538q-2 -45 35 -77t84 -32q63 0 112.5 45t55.5 109h137q-10 -119 -103 -205t-214 -86h-43q-133 0 -228 66q-106 74 -106 202v23l41 459q12 133 133 217q111 74 252 73h291zM553 -242q0 -78 -52 -129t-130 -51h-209 v135h209q45 0 45 45t-45 45h-154l115 270h149l-59 -139q59 -14 95 -64.5t36 -111.5z" />
<glyph unicode="&#xe8;" horiz-adv-x="755" d="M772 750h-137q6 63 -33 105t-94 48q-76 6 -120 -51t-44 -133q0 -131 96 -131h254l-12 -135h-252q-55 0 -89 -52.5t-34 -119.5q0 -63 34 -106.5t99 -39.5q55 4 101.5 46t52.5 110h137q-12 -139 -119 -219q-98 -72 -239 -72q-135 0 -236 82q-106 84 -98 209q10 143 141 229 q-113 106 -102 230q12 133 135 215q111 76 250 75q143 0 227 -71q94 -78 82 -219zM561 1217l-60 -123l-370 172l57 125z" />
<glyph unicode="&#xe9;" horiz-adv-x="755" d="M772 750h-137q6 63 -33 105t-94 48q-76 6 -120 -51t-44 -133q0 -131 96 -131h254l-12 -135h-252q-55 0 -89 -52.5t-34 -119.5q0 -63 34 -106.5t99 -39.5q55 4 101.5 46t52.5 110h137q-12 -139 -119 -219q-98 -72 -239 -72q-135 0 -236 82q-106 84 -98 209q10 143 141 229 q-113 106 -102 230q12 133 135 215q111 76 250 75q143 0 227 -71q94 -78 82 -219zM844 1266l-371 -172l-59 123l373 174z" />
<glyph unicode="&#xea;" horiz-adv-x="755" d="M772 750h-137q6 63 -33 105t-94 48q-76 6 -120 -51t-44 -133q0 -131 96 -131h254l-12 -135h-252q-55 0 -89 -52.5t-34 -119.5q0 -63 34 -106.5t99 -39.5q55 4 101.5 46t52.5 110h137q-12 -139 -119 -219q-98 -72 -239 -72q-135 0 -236 82q-106 84 -98 209q10 143 141 229 q-113 106 -102 230q12 133 135 215q111 76 250 75q143 0 227 -71q94 -78 82 -219zM744 1182l-80 -111l-189 137l-190 -137l-80 111l270 196z" />
<glyph unicode="&#xeb;" horiz-adv-x="755" d="M772 750h-137q6 63 -33 105t-94 48q-76 6 -120 -51t-44 -133q0 -131 96 -131h254l-12 -135h-252q-55 0 -89 -52.5t-34 -119.5q0 -63 34 -106.5t99 -39.5q55 4 101.5 46t52.5 110h137q-12 -139 -119 -219q-98 -72 -239 -72q-135 0 -236 82q-106 84 -98 209q10 143 141 229 q-113 106 -102 230q12 133 135 215q111 76 250 75q143 0 227 -71q94 -78 82 -219zM663 1094h-137v137h137v-137zM463 1094h-138v137h138v-137z" />
<glyph unicode="&#xec;" horiz-adv-x="493" d="M463 137l-12 -137h-41q-150 0 -232 68.5t-72 187.5l58 647h-78l12 137h351l-68 -784q-8 -107 82 -119zM398 1217l-60 -123l-370 172l57 125z" />
<glyph unicode="&#xed;" horiz-adv-x="493" d="M463 137l-12 -137h-41q-150 0 -232 68.5t-72 187.5l58 647h-78l12 137h351l-68 -784q-8 -107 82 -119zM680 1266l-371 -172l-59 123l373 174z" />
<glyph unicode="&#xee;" horiz-adv-x="493" d="M463 137l-12 -137h-41q-150 0 -232 68.5t-72 187.5l58 647h-78l12 137h351l-68 -784q-8 -107 82 -119zM560 1182l-80 -111l-189 137l-190 -137l-80 111l270 196z" />
<glyph unicode="&#xef;" horiz-adv-x="493" d="M463 137l-12 -137h-41q-150 0 -232 68.5t-72 187.5l58 647h-78l12 137h351l-68 -784q-8 -107 82 -119zM479 1094h-137v137h137v-137zM279 1094h-138v137h138v-137z" />
<glyph unicode="&#xf0;" horiz-adv-x="837" d="M975 1399l-109 -62q23 -61 19 -120l-80 -926q-10 -109 -98 -189v2q-109 -104 -289 -104h-41q-141 0 -240 74q-109 82 -96 217l41 459q10 135 133 217q111 74 252 73h43q47 0 86 -8l14 164l-137 -76l-59 119l168 92q-33 41 -62 41h-137l12 137h156q133 0 229 -67l135 74z M569 750q6 72 -22.5 112.5t-71.5 40.5t-78 -41t-41 -112l-41 -459q-8 -72 21 -112t74 -40q43 0 78.5 40t41.5 112z" />
<glyph unicode="&#xf1;" horiz-adv-x="991" d="M952 137l-12 -137h-117q-102 0 -164 49q-70 57 -61 160l49 567q4 47 -20 84q-31 43 -80 43h-111l-80 -903h-274l80 903h-78l12 137h463q170 0 264 -67q106 -78 95 -230l-44 -518q-4 -59 15 -75q12 -13 63 -13zM844 1225q-59 -129 -205 -129q-49 0 -92 20l-43 21 q-16 8 -35 8q-57 0 -82 -51l-123 57q59 127 203 127q49 0 94 -18l43 -19q18 -8 37 -8q55 0 78 49z" />
<glyph unicode="&#xf2;" horiz-adv-x="831" d="M846 750l-41 -459q-10 -121 -123 -206t-262 -85h-41q-141 0 -240 74q-109 82 -96 217l41 459q12 135 135 217q109 74 250 73h43q139 0 238 -73q108 -84 96 -217zM571 750q6 74 -21.5 112.5t-72.5 38.5q-43 0 -78 -37q-37 -43 -43 -114l-39 -459q-6 -70 23 -111t72 -43 t78.5 38t41.5 116zM602 1217l-60 -123l-370 172l57 125z" />
<glyph unicode="&#xf3;" horiz-adv-x="831" d="M846 750l-41 -459q-10 -121 -123 -206t-262 -85h-41q-141 0 -240 74q-109 82 -96 217l41 459q12 135 135 217q109 74 250 73h43q139 0 238 -73q108 -84 96 -217zM571 750q6 74 -21.5 112.5t-72.5 38.5q-43 0 -78 -37q-37 -43 -43 -114l-39 -459q-6 -70 23 -111t72 -43 t78.5 38t41.5 116zM864 1266l-371 -172l-59 123l373 174z" />
<glyph unicode="&#xf4;" horiz-adv-x="831" d="M846 750l-41 -459q-10 -121 -123 -206t-262 -85h-41q-141 0 -240 74q-109 82 -96 217l41 459q12 135 135 217q109 74 250 73h43q139 0 238 -73q108 -84 96 -217zM571 750q6 74 -21.5 112.5t-72.5 38.5q-43 0 -78 -37q-37 -43 -43 -114l-39 -459q-6 -70 23 -111t72 -43 t78.5 38t41.5 116zM785 1182l-80 -111l-189 137l-190 -137l-80 111l270 196z" />
<glyph unicode="&#xf5;" horiz-adv-x="831" d="M846 750l-41 -459q-10 -121 -123 -206t-262 -85h-41q-141 0 -240 74q-109 82 -96 217l41 459q12 135 135 217q109 74 250 73h43q139 0 238 -73q108 -84 96 -217zM571 750q6 74 -21.5 112.5t-72.5 38.5q-43 0 -78 -37q-37 -43 -43 -114l-39 -459q-6 -70 23 -111t72 -43 t78.5 38t41.5 116zM782 1225q-59 -129 -205 -129q-49 0 -92 20l-43 21q-16 8 -35 8q-57 0 -82 -51l-123 57q59 127 203 127q49 0 94 -18l43 -19q18 -8 37 -8q55 0 78 49z" />
<glyph unicode="&#xf6;" horiz-adv-x="831" d="M846 750l-41 -459q-10 -121 -123 -206t-262 -85h-41q-141 0 -240 74q-109 82 -96 217l41 459q12 135 135 217q109 74 250 73h43q139 0 238 -73q108 -84 96 -217zM571 750q6 74 -21.5 112.5t-72.5 38.5q-43 0 -78 -37q-37 -43 -43 -114l-39 -459q-6 -70 23 -111t72 -43 t78.5 38t41.5 116zM684 1094h-137v137h137v-137zM484 1094h-138v137h138v-137z" />
<glyph unicode="&#xf7;" horiz-adv-x="1220" d="M766 934q0 -55 -39 -94t-94 -39q-53 0 -93 39t-40 94q0 53 40 93t93 40q55 0 94 -40t39 -93zM1206 481h-1145v174h1145v-174zM766 207q0 -55 -39 -94t-94 -39q-53 0 -93 39t-40 94t40 94t93 39q55 0 94 -39t39 -94z" />
<glyph unicode="&#xf8;" horiz-adv-x="843" d="M891 1040l-88 -127q51 -68 43 -163l-39 -459q-10 -119 -124 -205t-261 -86h-43q-102 0 -189 43l-30 -43h-160l88 127q-51 68 -43 164l39 459q12 133 135 217q111 74 250 73h43q106 0 188 -43l31 43h160zM569 811q-14 90 -90 90q-43 0 -78 -37q-37 -43 -43 -114l-24 -273z M557 563l-235 -334q18 -90 90 -92q43 0 78.5 39t41.5 115z" />
<glyph unicode="&#xf9;" horiz-adv-x="968" d="M924 137l-13 -137h-489q-154 0 -242 78q-96 84 -82 237l52 588h-72l12 137h344l-63 -759q-4 -57 21.5 -100.5t76.5 -43.5h98l80 903h275l-78 -903h80zM623 1217l-60 -123l-370 172l57 125z" />
<glyph unicode="&#xfa;" horiz-adv-x="968" d="M924 137l-13 -137h-489q-154 0 -242 78q-96 84 -82 237l52 588h-72l12 137h344l-63 -759q-4 -57 21.5 -100.5t76.5 -43.5h98l80 903h275l-78 -903h80zM926 1266l-371 -172l-59 123l373 174z" />
<glyph unicode="&#xfb;" horiz-adv-x="968" d="M924 137l-13 -137h-489q-154 0 -242 78q-96 84 -82 237l52 588h-72l12 137h344l-63 -759q-4 -57 21.5 -100.5t76.5 -43.5h98l80 903h275l-78 -903h80zM826 1182l-80 -111l-189 137l-190 -137l-80 111l270 196z" />
<glyph unicode="&#xfc;" horiz-adv-x="968" d="M924 137l-13 -137h-489q-154 0 -242 78q-96 84 -82 237l52 588h-72l12 137h344l-63 -759q-4 -57 21.5 -100.5t76.5 -43.5h98l80 903h275l-78 -903h80zM704 1094h-137v137h137v-137zM504 1094h-138v137h138v-137z" />
<glyph unicode="&#xfd;" horiz-adv-x="905" d="M924 1040l-105 -1196q-10 -121 -123.5 -207t-263.5 -86h-276l12 138h260q102 0 113 121l16 190h-90q-160 0 -260 78q-111 86 -98 237l51 588h-74l12 137h348l-67 -776q-10 -127 100 -127h90l80 903h275zM926 1266l-371 -172l-59 123l373 174z" />
<glyph unicode="&#xfe;" horiz-adv-x="894" d="M938 1040l-66 -749q-12 -135 -135 -217q-111 -74 -252 -74h-127l-39 -449h-274l160 1821h-82l12 137h354l-40 -469h489zM651 905h-215l-65 -768h106q43 0 79 41t42 113z" />
<glyph unicode="&#xff;" horiz-adv-x="905" d="M924 1040l-105 -1196q-10 -121 -123.5 -207t-263.5 -86h-276l12 138h260q102 0 113 121l16 190h-90q-160 0 -260 78q-111 86 -98 237l51 588h-74l12 137h348l-67 -776q-10 -127 100 -127h90l80 903h275zM745 1094h-137v137h137v-137zM545 1094h-138v137h138v-137z" />
<glyph unicode="&#x131;" horiz-adv-x="493" d="M463 137l-12 -137h-41q-150 0 -232 68.5t-72 187.5l58 647h-78l12 137h351l-68 -784q-8 -107 82 -119z" />
<glyph unicode="&#x152;" horiz-adv-x="1290" d="M1376 1509l-10 -137h-432l-49 -549h299l-13 -137h-297l-49 -549h432l-12 -137h-868q-141 0 -238 74q-109 82 -96 217l80 926q12 135 135 219q111 74 250 73h868zM647 1223q6 72 -31 114q-31 37 -81 37q-51 0 -89 -39q-43 -43 -49 -118l-82 -926q-6 -70 28 -113t83 -45 q51 -2 92 37t47 115z" />
<glyph unicode="&#x153;" horiz-adv-x="1218" d="M1262 750h-138q4 63 -33.5 105t-93.5 48q-59 6 -100 -31q-49 -41 -55 -122l-15 -162h357l-13 -135h-356l-12 -162q-6 -80 30.5 -120t96.5 -36q57 4 103 46t52 110h138q-12 -119 -105.5 -205t-212.5 -86h-43q-127 0 -219 61q-104 -61 -227 -61h-41q-143 0 -240 74 q-109 82 -96 217l41 459q10 133 135 217q109 74 250 73h43q123 0 217 -59q104 59 229 59h41q115 0 196 -88.5t71 -201.5zM569 750q6 72 -24 114q-27 37 -70 37q-45 0 -78 -37q-37 -43 -43 -114l-41 -459q-6 -70 21.5 -111t73.5 -43q43 -2 77.5 38t42.5 116z" />
<glyph unicode="&#x178;" horiz-adv-x="966" d="M1044 1509l-43 -471q-10 -113 -88.5 -196.5t-207.5 -110.5l-64 -731h-272l63 729q-129 23 -197.5 108t-58.5 201l29 334h-76l12 137h348l-45 -512q-4 -57 34 -98t95 -41t103.5 41t50.5 98l43 512h274zM821 1536h-137v137h137v-137zM621 1536h-138v137h138v-137z" />
<glyph unicode="&#x2c6;" horiz-adv-x="548" d="M621 1182l-80 -111l-189 137l-190 -137l-80 111l270 196z" />
<glyph unicode="&#x2da;" horiz-adv-x="489" d="M535 1296q0 -82 -57.5 -139t-139.5 -57q-80 0 -138.5 57t-58.5 139t58.5 139.5t138.5 57.5q82 0 139.5 -57.5t57.5 -139.5zM451 1296q0 45 -33 78t-80 33q-45 0 -78 -33t-33 -78t33 -77.5t78 -32.5q47 0 80 32.5t33 77.5z" />
<glyph unicode="&#x2dc;" horiz-adv-x="636" d="M680 1225q-59 -129 -205 -129q-49 0 -92 20l-43 21q-16 8 -35 8q-57 0 -82 -51l-123 57q59 127 203 127q49 0 94 -18l43 -19q18 -8 37 -8q55 0 78 49z" />
<glyph unicode="&#x2000;" horiz-adv-x="964" />
<glyph unicode="&#x2001;" horiz-adv-x="1929" />
<glyph unicode="&#x2002;" horiz-adv-x="964" />
<glyph unicode="&#x2003;" horiz-adv-x="1929" />
<glyph unicode="&#x2004;" horiz-adv-x="643" />
<glyph unicode="&#x2005;" horiz-adv-x="482" />
<glyph unicode="&#x2006;" horiz-adv-x="321" />
<glyph unicode="&#x2007;" horiz-adv-x="321" />
<glyph unicode="&#x2008;" horiz-adv-x="241" />
<glyph unicode="&#x2009;" horiz-adv-x="385" />
<glyph unicode="&#x200a;" horiz-adv-x="107" />
<glyph unicode="&#x2010;" horiz-adv-x="442" d="M459 860l-19 -205h-362l18 205h363z" />
<glyph unicode="&#x2011;" horiz-adv-x="442" d="M459 860l-19 -205h-362l18 205h363z" />
<glyph unicode="&#x2012;" horiz-adv-x="442" d="M459 860l-19 -205h-362l18 205h363z" />
<glyph unicode="&#x2013;" horiz-adv-x="1024" d="M1053 860l-19 -205h-956l18 205h957z" />
<glyph unicode="&#x2014;" horiz-adv-x="2048" d="M2056 860l-18 -205h-1960l18 205h1960z" />
<glyph unicode="&#x2018;" horiz-adv-x="296" d="M113 1303q0 119 80 186q47 41 122 43v-82q-63 4 -84 -53q20 4 39 0q51 -8 81 -52.5t22 -95.5q-10 -51 -53.5 -81.5t-94.5 -20.5q-112 21 -112 156z" />
<glyph unicode="&#x2019;" horiz-adv-x="296" d="M375 1376q0 -119 -80 -186q-47 -41 -123 -43v82q63 -4 84 53q-20 -4 -39 0q-51 8 -81 52t-21 96q10 51 53 81.5t94 20.5q113 -21 113 -156z" />
<glyph unicode="&#x201a;" horiz-adv-x="317" d="M279 86q0 -119 -80 -186q-47 -41 -123 -43v82q63 -4 84 53q-20 -4 -39 0q-51 8 -81 52t-22 95q10 51 53.5 82t94.5 21q113 -21 113 -156z" />
<glyph unicode="&#x201c;" horiz-adv-x="575" d="M395 1303q0 119 80 186q47 41 123 43v-82q-63 4 -84 -53q20 4 39 0q51 -8 81 -52.5t21 -95.5q-10 -51 -53 -81.5t-94 -20.5q-113 21 -113 156zM109 1303q0 119 79 186q47 41 123 43v-82q-63 4 -84 -53q20 4 39 0q51 -8 81 -52.5t22 -95.5q-10 -51 -53.5 -81.5 t-94.5 -20.5q-112 21 -112 156z" />
<glyph unicode="&#x201d;" horiz-adv-x="575" d="M371 1376q0 -119 -80 -186q-47 -41 -123 -43v82q63 -4 84 53q-20 -4 -39 0q-51 8 -81 52t-21 96q10 51 53 81.5t94 20.5q113 -21 113 -156zM657 1376q0 -119 -79 -186q-47 -41 -123 -43v82q63 -4 84 53q-20 -4 -39 0q-51 8 -81 52t-22 96q10 51 53.5 81.5t94.5 20.5 q112 -21 112 -156z" />
<glyph unicode="&#x201e;" horiz-adv-x="575" d="M264 86q0 -119 -80 -186q-47 -41 -123 -43v82q63 -4 84 53q-20 -4 -39 0q-51 8 -80.5 52t-21.5 95q10 51 53 82t95 21q112 -21 112 -156zM551 86q0 -119 -80 -186q-47 -41 -123 -43v82q63 -4 84 53q-20 -4 -39 0q-51 8 -80.5 52t-21.5 95q10 51 53 82t94 21 q113 -21 113 -156z" />
<glyph unicode="&#x2022;" horiz-adv-x="454" d="M279 1001q84 0 142 -58t58 -142q0 -82 -59.5 -140.5t-140.5 -58.5q-82 0 -141.5 58.5t-59.5 140.5q0 84 59.5 142t141.5 58z" />
<glyph unicode="&#x2026;" horiz-adv-x="868" d="M266 117q0 -51 -36.5 -88t-90.5 -37q-51 0 -88 37t-37 88q0 53 36 90t89 37t90 -37t37 -90zM553 117q0 -51 -37 -88t-90 -37q-51 0 -88 37t-37 88q0 53 36 90t89 37t90 -37t37 -90zM840 117q0 -51 -37 -88t-90 -37q-51 0 -88 37t-37 88q0 53 35.5 90t89.5 37q53 0 90 -37 t37 -90z" />
<glyph unicode="&#x202f;" horiz-adv-x="385" />
<glyph unicode="&#x2039;" horiz-adv-x="389" d="M397 510h-166l-168 244l168 245h166l-168 -245z" />
<glyph unicode="&#x203a;" horiz-adv-x="403" d="M92 997h166l168 -243l-168 -246h-166l168 246z" />
<glyph unicode="&#x205f;" horiz-adv-x="482" />
<glyph unicode="&#x2122;" horiz-adv-x="925" d="M973 1008l-4 -50h-82q-76 0 -76 70q0 59 15.5 186t15.5 187q0 55 -39 55q-43 0 -49 -65l-37 -433h-101l37 443q2 41 -22 51q-10 4 -60 4l-43 -498h-100l43 500h-57l4 51h203q55 0 90 -26q41 27 96 26q55 0 95 -27.5t40 -80.5q0 -55 -15.5 -184.5t-15.5 -186.5 q0 -20 23 -22q-6 0 39 0zM379 1509l-4 -51h-72l-43 -500h-100l43 500h-70l4 51h242z" />
<glyph unicode="&#x25fc;" horiz-adv-x="1044" d="M0 1044h1044v-1044h-1044v1044z" />
</font>
</defs>
</svg>
